<svg width="28" height="28" viewBox="0 0 28 28" fill="none" xmlns="http://www.w3.org/2000/svg">
<g clip-path="url(#clip0_570_12176)">
<path d="M23.3333 2.33325C23.9773 2.33325 24.5 2.85592 24.5 3.49992V7.88309L22.1667 10.2164V4.66659H5.83333V23.3333H22.1667V20.1156L24.5 17.7823V24.4999C24.5 25.1439 23.9773 25.6666 23.3333 25.6666H4.66667C4.02267 25.6666 3.5 25.1439 3.5 24.4999V3.49992C3.5 2.85592 4.02267 2.33325 4.66667 2.33325H23.3333ZM25.4077 10.2759L27.0573 11.9256L17.983 20.9999L16.331 20.9976L16.3333 19.3503L25.4077 10.2759ZM15.1667 13.9999V16.3333H9.33333V13.9999H15.1667ZM18.6667 9.33325V11.6666H9.33333V9.33325H18.6667Z" fill="white"/>
</g>
<defs>
<clipPath id="clip0_570_12176">
<rect width="28" height="28" fill="white"/>
</clipPath>
</defs>
</svg>
