<svg width="11" height="10" viewBox="0 0 11 10" fill="none" xmlns="http://www.w3.org/2000/svg">
<path d="M2.23802 2.34621V7.65228L7.47812 4.99924L2.23802 2.34621ZM1.1535 0.0521467L10.285 4.67497C10.3504 4.70821 10.4047 4.75574 10.4424 4.81283C10.4802 4.86991 10.5 4.93457 10.5 5.00037C10.5 5.06618 10.4802 5.13084 10.4424 5.18792C10.4047 5.24501 10.3504 5.29254 10.285 5.32578L1.1535 9.9486C1.08728 9.98214 1.01201 9.99987 0.935332 10C0.858658 10.0001 0.78331 9.98264 0.716939 9.94933C0.650569 9.91601 0.595539 9.86804 0.557439 9.8103C0.519339 9.75256 0.499525 9.68709 0.500009 9.62056V0.377177C0.499986 0.310831 0.520136 0.245654 0.558424 0.188228C0.596712 0.130801 0.651783 0.0831586 0.718075 0.0501099C0.784367 0.0170613 0.859535 -0.000223051 0.935986 2.17324e-06C1.01244 0.000227397 1.08747 0.0187082 1.1535 0.0521467Z" fill="#024D91"/>
</svg>
