<svg width="16" height="16" viewBox="0 0 16 16" fill="none" xmlns="http://www.w3.org/2000/svg">
<path d="M8 16C3.58172 16 0 12.4182 0 8C0 3.58172 3.58172 0 8 0C12.4182 0 16 3.58172 16 8C16 12.4182 12.4182 16 8 16ZM6.89752 5.13167C6.84496 5.09662 6.7832 5.07793 6.72 5.07793C6.54328 5.07793 6.4 5.22119 6.4 5.39793V10.6021C6.4 10.6653 6.41872 10.727 6.45376 10.7796C6.55176 10.9266 6.75048 10.9664 6.89752 10.8683L10.8006 8.26624C10.8358 8.2428 10.8659 8.21264 10.8894 8.17752C10.9874 8.03048 10.9477 7.83176 10.8006 7.73376L6.89752 5.13167Z" fill="#024D91"/>
</svg>
