<svg width="11" height="10" viewBox="0 0 11 10" fill="none" xmlns="http://www.w3.org/2000/svg">
<path d="M1.92857 1.42857V8.57143H9.07143V1.42857H1.92857ZM1.21429 0H9.78571C9.97515 0 10.1568 0.075255 10.2908 0.20921C10.4247 0.343164 10.5 0.524845 10.5 0.714286V9.28571C10.5 9.47515 10.4247 9.65684 10.2908 9.79079C10.1568 9.92475 9.97515 10 9.78571 10H1.21429C1.02485 10 0.843164 9.92475 0.70921 9.79079C0.575255 9.65684 0.5 9.47515 0.5 9.28571V0.714286C0.5 0.524845 0.575255 0.343164 0.70921 0.20921C0.843164 0.075255 1.02485 0 1.21429 0Z" fill="#E0E2E4"/>
</svg>
