<svg width="75" height="22" viewBox="0 0 75 22" fill="none" xmlns="http://www.w3.org/2000/svg">
<rect width="75" height="22" rx="10" fill="#024D91"/>
<path d="M10.9286 7.42857V14.5714H18.0714V7.42857H10.9286ZM10.2143 6H18.7857C18.9752 6 19.1568 6.07526 19.2908 6.20921C19.4247 6.34316 19.5 6.52485 19.5 6.71429V15.2857C19.5 15.4752 19.4247 15.6568 19.2908 15.7908C19.1568 15.9247 18.9752 16 18.7857 16H10.2143C10.0248 16 9.84316 15.9247 9.70921 15.7908C9.57526 15.6568 9.5 15.4752 9.5 15.2857V6.71429C9.5 6.52485 9.57526 6.34316 9.70921 6.20921C9.84316 6.07526 10.0248 6 10.2143 6Z" fill="#E0E2E4"/>
<path d="M25.299 15V7.72727H27.9624C28.4785 7.72727 28.9058 7.8125 29.2443 7.98295C29.5829 8.15104 29.8362 8.3795 30.0043 8.66832C30.1723 8.95478 30.2564 9.27794 30.2564 9.63778C30.2564 9.94081 30.2008 10.1965 30.0895 10.4048C29.9782 10.6108 29.8291 10.7765 29.642 10.902C29.4574 11.0251 29.2538 11.1151 29.0312 11.1719V11.2429C29.2727 11.2547 29.5083 11.3329 29.7379 11.4773C29.9699 11.6193 30.1617 11.8217 30.3132 12.0845C30.4647 12.3473 30.5405 12.6669 30.5405 13.0433C30.5405 13.415 30.4529 13.7488 30.2777 14.0447C30.1049 14.3383 29.8374 14.5715 29.4751 14.7443C29.1129 14.9148 28.6501 15 28.0866 15H25.299ZM26.3963 14.0589H27.9801C28.5057 14.0589 28.8821 13.9571 29.1094 13.7536C29.3366 13.55 29.4503 13.2955 29.4503 12.9901C29.4503 12.7604 29.3923 12.5497 29.2763 12.358C29.1603 12.1662 28.9946 12.0135 28.7791 11.8999C28.5661 11.7862 28.3127 11.7294 28.0192 11.7294H26.3963V14.0589ZM26.3963 10.8736H27.8665C28.1127 10.8736 28.334 10.8262 28.5305 10.7315C28.7294 10.6368 28.8868 10.5043 29.0028 10.3338C29.1212 10.161 29.1804 9.95739 29.1804 9.72301C29.1804 9.42235 29.075 9.17022 28.8643 8.96662C28.6536 8.76302 28.3305 8.66122 27.8949 8.66122H26.3963V10.8736ZM34.1076 15.1101C33.5702 15.1101 33.1074 14.9953 32.7191 14.7656C32.3332 14.5336 32.0349 14.2081 31.8242 13.7891C31.6159 13.3677 31.5117 12.8741 31.5117 12.3082C31.5117 11.7495 31.6159 11.2571 31.8242 10.831C32.0349 10.4048 32.3285 10.0722 32.7049 9.8331C33.0837 9.59399 33.5264 9.47443 34.033 9.47443C34.3408 9.47443 34.6391 9.52533 34.9279 9.62713C35.2167 9.72893 35.476 9.88873 35.7056 10.1065C35.9353 10.3243 36.1164 10.6072 36.2489 10.9553C36.3815 11.3009 36.4478 11.7211 36.4478 12.2159V12.5923H32.1119V11.7969H35.4073C35.4073 11.5175 35.3505 11.2701 35.2369 11.0547C35.1232 10.8369 34.9634 10.6652 34.7575 10.5398C34.5539 10.4143 34.3147 10.3516 34.0401 10.3516C33.7418 10.3516 33.4814 10.425 33.2589 10.5717C33.0387 10.7161 32.8683 10.9055 32.7475 11.1399C32.6291 11.3719 32.57 11.6241 32.57 11.8963V12.5178C32.57 12.8823 32.6339 13.1925 32.7617 13.4482C32.8919 13.7038 33.073 13.8991 33.305 14.0341C33.5371 14.1667 33.8081 14.233 34.1183 14.233C34.3195 14.233 34.503 14.2045 34.6687 14.1477C34.8344 14.0885 34.9776 14.0009 35.0984 13.8849C35.2191 13.7689 35.3114 13.6257 35.3754 13.4553L36.3803 13.6364C36.2998 13.9323 36.1554 14.1915 35.9471 14.4141C35.7411 14.6342 35.4819 14.8059 35.1694 14.929C34.8593 15.0497 34.5053 15.1101 34.1076 15.1101ZM37.6259 15V9.54545H38.6522V10.4119H38.709C38.8084 10.1184 38.9836 9.88755 39.2346 9.71946C39.4879 9.54901 39.7743 9.46378 40.0939 9.46378C40.1602 9.46378 40.2383 9.46615 40.3283 9.47088C40.4206 9.47562 40.4928 9.48153 40.5449 9.48864V10.5043C40.5023 10.4924 40.4266 10.4794 40.3176 10.4652C40.2087 10.4486 40.0998 10.4403 39.9909 10.4403C39.74 10.4403 39.5163 10.4936 39.3198 10.6001C39.1257 10.7043 38.9718 10.8499 38.8581 11.0369C38.7445 11.2216 38.6877 11.4323 38.6877 11.669V15H37.6259ZM42.5256 11.7614V15H41.4638V7.72727H42.5114V10.4332H42.5788C42.7067 10.1397 42.902 9.90649 43.1648 9.73366C43.4276 9.56084 43.7708 9.47443 44.1946 9.47443C44.5687 9.47443 44.8954 9.55137 45.1747 9.70526C45.4564 9.85914 45.6742 10.0888 45.8281 10.3942C45.9844 10.6972 46.0625 11.076 46.0625 11.5305V15H45.0007V11.6584C45.0007 11.2583 44.8977 10.9482 44.6918 10.728C44.4858 10.5054 44.1993 10.3942 43.8324 10.3942C43.5814 10.3942 43.3565 10.4474 43.1577 10.554C42.9612 10.6605 42.8061 10.8168 42.6925 11.0227C42.5812 11.2263 42.5256 11.4725 42.5256 11.7614ZM49.8303 15.1101C49.2929 15.1101 48.83 14.9953 48.4418 14.7656C48.0559 14.5336 47.7576 14.2081 47.5469 13.7891C47.3385 13.3677 47.2344 12.8741 47.2344 12.3082C47.2344 11.7495 47.3385 11.2571 47.5469 10.831C47.7576 10.4048 48.0511 10.0722 48.4276 9.8331C48.8063 9.59399 49.2491 9.47443 49.7557 9.47443C50.0634 9.47443 50.3617 9.52533 50.6506 9.62713C50.9394 9.72893 51.1986 9.88873 51.4283 10.1065C51.6579 10.3243 51.839 10.6072 51.9716 10.9553C52.1042 11.3009 52.1705 11.7211 52.1705 12.2159V12.5923H47.8345V11.7969H51.13C51.13 11.5175 51.0732 11.2701 50.9595 11.0547C50.8459 10.8369 50.6861 10.6652 50.4801 10.5398C50.2765 10.4143 50.0374 10.3516 49.7628 10.3516C49.4645 10.3516 49.2041 10.425 48.9815 10.5717C48.7614 10.7161 48.5909 10.9055 48.4702 11.1399C48.3518 11.3719 48.2926 11.6241 48.2926 11.8963V12.5178C48.2926 12.8823 48.3565 13.1925 48.4844 13.4482C48.6146 13.7038 48.7957 13.8991 49.0277 14.0341C49.2597 14.1667 49.5308 14.233 49.8409 14.233C50.0421 14.233 50.2256 14.2045 50.3913 14.1477C50.5571 14.0885 50.7003 14.0009 50.821 13.8849C50.9418 13.7689 51.0341 13.6257 51.098 13.4553L52.103 13.6364C52.0225 13.9323 51.8781 14.1915 51.6697 14.4141C51.4638 14.6342 51.2045 14.8059 50.892 14.929C50.5819 15.0497 50.228 15.1101 49.8303 15.1101ZM54.4103 11.7614V15H53.3485V9.54545H54.3677V10.4332H54.4352C54.5607 10.1444 54.7572 9.91241 55.0247 9.73722C55.2946 9.56203 55.6343 9.47443 56.0439 9.47443C56.4155 9.47443 56.7411 9.55256 57.0204 9.70881C57.2998 9.86269 57.5164 10.0923 57.6703 10.3977C57.8242 10.7031 57.9011 11.0807 57.9011 11.5305V15H56.8393V11.6584C56.8393 11.263 56.7363 10.9541 56.5304 10.7315C56.3244 10.5066 56.0415 10.3942 55.6816 10.3942C55.4354 10.3942 55.2164 10.4474 55.0247 10.554C54.8353 10.6605 54.685 10.8168 54.5737 11.0227C54.4648 11.2263 54.4103 11.4725 54.4103 11.7614ZM61.8713 9.54545V10.3977H58.8919V9.54545H61.8713ZM59.6909 8.23864H60.7527V13.3984C60.7527 13.6044 60.7834 13.7595 60.845 13.8636C60.9065 13.9654 60.9859 14.0353 61.0829 14.0732C61.1824 14.1087 61.2901 14.1264 61.4061 14.1264C61.4913 14.1264 61.5659 14.1205 61.6298 14.1087C61.6937 14.0968 61.7434 14.0874 61.7789 14.0803L61.9707 14.9574C61.9092 14.9811 61.8216 15.0047 61.7079 15.0284C61.5943 15.0545 61.4522 15.0687 61.2818 15.071C61.0024 15.0758 60.742 15.026 60.5005 14.9219C60.2591 14.8177 60.0637 14.6567 59.9146 14.4389C59.7654 14.2211 59.6909 13.9477 59.6909 13.6186V8.23864ZM63.0458 15V9.54545H64.1076V15H63.0458ZM63.582 8.70384C63.3974 8.70384 63.2388 8.64228 63.1062 8.51918C62.976 8.3937 62.9109 8.24455 62.9109 8.07173C62.9109 7.89654 62.976 7.7474 63.1062 7.62429C63.2388 7.49882 63.3974 7.43608 63.582 7.43608C63.7667 7.43608 63.9241 7.49882 64.0543 7.62429C64.1869 7.7474 64.2532 7.89654 64.2532 8.07173C64.2532 8.24455 64.1869 8.3937 64.0543 8.51918C63.9241 8.64228 63.7667 8.70384 63.582 8.70384Z" fill="white"/>
</svg>
