<svg width="40" height="40" viewBox="0 0 40 40" fill="none" xmlns="http://www.w3.org/2000/svg">
<path d="M20 36.6668C10.7953 36.6668 3.33337 29.2048 3.33337 20.0002C3.33337 10.7954 10.7953 3.3335 20 3.3335C29.2047 3.3335 36.6667 10.7954 36.6667 20.0002C36.6667 29.2048 29.2047 36.6668 20 36.6668ZM20 33.3335C27.3639 33.3335 33.3334 27.364 33.3334 20.0002C33.3334 12.6364 27.3639 6.66683 20 6.66683C12.6362 6.66683 6.66671 12.6364 6.66671 20.0002C6.66671 27.364 12.6362 33.3335 20 33.3335ZM18.3377 26.6668L11.2667 19.5958L13.6237 17.2387L18.3377 21.9528L27.7659 12.5247L30.1229 14.8817L18.3377 26.6668Z" fill="#18B50B"/>
</svg>
