<svg width="15" height="14" viewBox="0 0 15 14" fill="none" xmlns="http://www.w3.org/2000/svg">
<path d="M6.35955 8.62336L6.49741 8.08181C6.55124 8.16195 6.58919 8.25187 6.60899 8.34669C6.63234 8.45851 6.62984 8.57417 6.60168 8.68487L6.03742 10.9019C6.03739 10.902 6.03736 10.9022 6.03732 10.9023C5.99152 11.082 6.00859 11.272 6.0857 11.4407C6.16286 11.6095 6.2955 11.7468 6.46155 11.8298L6.46167 11.8298L6.87479 12.0361L7.25897 12.2279L7.5066 11.8771L10.4503 7.70718C10.5647 7.54521 10.7115 7.41192 10.8789 7.31322L11.125 7.16815V6.8825V1.625V1.125H10.625H3.65H3.31518L3.18767 1.4346L1.41267 5.7446L1.375 5.83607V5.935V7.25V7.75H1.875H5.87493C5.87495 7.75 5.87498 7.75 5.875 7.75C5.9892 7.75003 6.10189 7.77613 6.20447 7.82633C6.29156 7.86895 6.36942 7.92797 6.43384 8H5.875H1.875C1.67609 8 1.48532 7.92098 1.34467 7.78033C1.20402 7.63968 1.125 7.44891 1.125 7.25L1.125 5.935L1.125 5.93448C1.1249 5.83655 1.14398 5.73955 1.18116 5.64895C1.18119 5.64888 1.18122 5.6488 1.18125 5.64873L3.11605 0.95298L3.11624 0.9525C3.12565 0.929595 3.14166 0.91 3.16222 0.896201C3.18274 0.882431 3.20688 0.875054 3.23159 0.875H13.75C13.7832 0.875 13.8149 0.88817 13.8384 0.911612C13.8618 0.935053 13.875 0.966847 13.875 1V7.25C13.875 7.28315 13.8618 7.31495 13.8384 7.33839C13.8149 7.36183 13.7832 7.375 13.75 7.375H11.5739C11.5738 7.375 11.5738 7.375 11.5738 7.375C11.3937 7.37497 11.2162 7.41817 11.0563 7.50096C10.8964 7.58377 10.7587 7.70377 10.6548 7.85088L10.6546 7.85106L7.33944 12.5481L6.35006 12.0529L6.3498 12.0528C6.13283 11.9443 5.9595 11.7649 5.85861 11.5443C5.75772 11.3237 5.73533 11.0753 5.79517 10.8402L6.35955 8.62336ZM7.24647 12.6798C7.24653 12.6798 7.24659 12.6797 7.24665 12.6796L7.2465 12.6798L7.24647 12.6798ZM11.375 6.625V7.125H11.875H13.125H13.625V6.625V1.625V1.125H13.125H11.875H11.375V1.625V6.625Z" fill="#00599B" stroke="#F02D2D"/>
</svg>
