<svg width="40" height="40" viewBox="0 0 40 40" fill="none" xmlns="http://www.w3.org/2000/svg">
<g clip-path="url(#clip0_222_4693)">
<path d="M35.0002 25V30H40.0002V33.3333H35.0002V38.3333H31.6668V33.3333H26.6668V30H31.6668V25H35.0002ZM35.0138 5C35.9268 5 36.6668 5.74158 36.6668 6.65567V21.6667H33.3335V8.33333H6.66683V31.665L23.3335 15L28.3335 20V24.715L23.3335 19.714L11.3785 31.6667H23.3335V35H4.9865C4.07358 35 3.3335 34.2585 3.3335 33.3443V6.65567C3.3335 5.74127 4.09235 5 4.9865 5H35.0138ZM13.3335 11.6667C15.1744 11.6667 16.6668 13.159 16.6668 15C16.6668 16.841 15.1744 18.3333 13.3335 18.3333C11.4925 18.3333 10.0002 16.841 10.0002 15C10.0002 13.159 11.4925 11.6667 13.3335 11.6667Z" fill="black"/>
</g>
<defs>
<clipPath id="clip0_222_4693">
<rect width="40" height="40" fill="white"/>
</clipPath>
</defs>
</svg>
