<svg width="42" height="43" viewBox="0 0 42 43" fill="none" xmlns="http://www.w3.org/2000/svg">
<path d="M21 42.3333C9.49407 42.3333 0.166672 33.0058 0.166672 21.5C0.166672 9.99406 9.49407 0.666668 21 0.666668C32.5058 0.666668 41.8333 9.99406 41.8333 21.5C41.8333 33.0058 32.5058 42.3333 21 42.3333ZM21 38.1667C30.2048 38.1667 37.6667 30.7048 37.6667 21.5C37.6667 12.2953 30.2048 4.83333 21 4.83333C11.7953 4.83333 4.33334 12.2953 4.33334 21.5C4.33334 30.7048 11.7953 38.1667 21 38.1667ZM18.9167 11.0833H23.0833V15.25H18.9167V11.0833ZM18.9167 19.4167H23.0833V31.9167H18.9167V19.4167Z" fill="#00599B"/>
</svg>
