<svg width="15" height="16" viewBox="0 0 15 16" fill="none" xmlns="http://www.w3.org/2000/svg">
<g clip-path="url(#clip0_552_2128)">
<path d="M4.55687 13.515L1.25 14.25L1.985 10.9431C1.50096 10.0377 1.24845 9.02665 1.25 8C1.25 4.54813 4.04812 1.75 7.5 1.75C10.9519 1.75 13.75 4.54813 13.75 8C13.75 11.4519 10.9519 14.25 7.5 14.25C6.47335 14.2515 5.46226 13.999 4.55687 13.515ZM4.73812 12.1944L5.14625 12.4131C5.87034 12.8001 6.679 13.0017 7.5 13C8.48891 13 9.4556 12.7068 10.2779 12.1573C11.1001 11.6079 11.741 10.827 12.1194 9.91342C12.4978 8.99979 12.5969 7.99445 12.4039 7.02455C12.211 6.05464 11.7348 5.16373 11.0355 4.46447C10.3363 3.7652 9.44536 3.289 8.47545 3.09607C7.50555 2.90315 6.50021 3.00216 5.58658 3.3806C4.67295 3.75904 3.89206 4.3999 3.34265 5.22215C2.79324 6.04439 2.5 7.01109 2.5 8C2.5 8.83375 2.70312 9.63625 3.0875 10.3538L3.30562 10.7619L2.89625 12.6037L4.73812 12.1944Z" fill="#39A5E1"/>
</g>
<defs>
<clipPath id="clip0_552_2128">
<rect width="15" height="15" fill="white" transform="translate(0 0.5)"/>
</clipPath>
</defs>
</svg>
