<svg width="15" height="15" viewBox="0 0 15 15" fill="none" xmlns="http://www.w3.org/2000/svg">
<g clip-path="url(#clip0_552_2120)">
<path d="M5.875 10H1.875C1.54348 10 1.22554 9.8683 0.991117 9.63388C0.756697 9.39946 0.625001 9.08152 0.625001 8.75V7.435C0.624832 7.27165 0.656683 7.10985 0.718751 6.95875L2.65375 2.2625C2.7008 2.14797 2.78081 2.05 2.88363 1.98101C2.98644 1.91202 3.10743 1.87512 3.23125 1.875H13.75C13.9158 1.875 14.0747 1.94085 14.1919 2.05806C14.3092 2.17527 14.375 2.33424 14.375 2.5V8.75C14.375 8.91576 14.3092 9.07473 14.1919 9.19194C14.0747 9.30915 13.9158 9.375 13.75 9.375H11.5738C11.4737 9.37497 11.3751 9.39897 11.2862 9.44498C11.1974 9.49098 11.1209 9.55765 11.0631 9.63938L7.655 14.4681C7.61192 14.5292 7.54838 14.5728 7.47592 14.591C7.40345 14.6092 7.32685 14.6009 7.26 14.5675L6.12625 14C5.80719 13.8405 5.55229 13.5767 5.40392 13.2523C5.25555 12.9279 5.22262 12.5625 5.31063 12.2169L5.875 10ZM10.625 8.3825V3.125H3.65L1.875 7.435V8.75H5.875C6.06538 8.75003 6.25323 8.79354 6.42423 8.87721C6.59523 8.96089 6.74486 9.08252 6.8617 9.23282C6.97855 9.38312 7.05951 9.55813 7.09843 9.74448C7.13734 9.93084 7.13318 10.1236 7.08625 10.3081L6.52188 12.5256C6.50421 12.5948 6.51077 12.6679 6.54044 12.7329C6.57012 12.7978 6.62114 12.8506 6.685 12.8825L7.09813 13.0887L10.0419 8.91875C10.1981 8.6975 10.3981 8.51625 10.625 8.3825ZM11.875 8.125H13.125V3.125H11.875V8.125Z" fill="#39A5E1"/>
</g>
<defs>
<clipPath id="clip0_552_2120">
<rect width="15" height="15" fill="white"/>
</clipPath>
</defs>
</svg>
