<svg width="22" height="22" viewBox="0 0 22 22" fill="none" xmlns="http://www.w3.org/2000/svg">
<g clip-path="url(#clip0_775_9463)">
<path d="M19.2502 13.75V16.5H22.0002V18.3333H19.2502V21.0833H17.4168V18.3333H14.6668V16.5H17.4168V13.75H19.2502ZM19.2577 2.75C19.7598 2.75 20.1668 3.15787 20.1668 3.66062V11.9167H18.3335V4.58333H3.66683V17.4157L12.8335 8.25L15.5835 11V13.5932L12.8335 10.8427L6.25825 17.4167H12.8335V19.25H2.74265C2.24054 19.25 1.8335 18.8422 1.8335 18.3394V3.66062C1.8335 3.1577 2.25086 2.75 2.74265 2.75H19.2577ZM7.3335 6.41667C8.34602 6.41667 9.16683 7.23748 9.16683 8.25C9.16683 9.26255 8.34602 10.0833 7.3335 10.0833C6.32097 10.0833 5.50016 9.26255 5.50016 8.25C5.50016 7.23748 6.32097 6.41667 7.3335 6.41667Z" fill="#617D97"/>
</g>
<defs>
<clipPath id="clip0_775_9463">
<rect width="22" height="22" fill="white"/>
</clipPath>
</defs>
</svg>
