<svg width="36" height="35" viewBox="0 0 36 35" fill="none" xmlns="http://www.w3.org/2000/svg">
<rect x="0.5" width="35" height="35" rx="17.5" fill="white"/>
<g clip-path="url(#clip0_552_2135)">
<path d="M11.3333 22.8333H24.6667V18.6667H26.3333V23.6667C26.3333 23.8877 26.2455 24.0996 26.0893 24.2559C25.933 24.4122 25.721 24.5 25.5 24.5H10.5C10.279 24.5 10.067 24.4122 9.91075 24.2559C9.75447 24.0996 9.66667 23.8877 9.66667 23.6667V18.6667H11.3333V22.8333ZM18 15.3333H15.5C14.7109 15.3328 13.9329 15.5193 13.2298 15.8775C12.5266 16.2357 11.9184 16.7555 11.455 17.3942C11.7508 15.8754 12.5655 14.5067 13.7596 13.5226C14.9536 12.5385 16.4527 12.0003 18 12V8.66666L24.6667 13.6667L18 18.6667V15.3333Z" fill="#39A5E1"/>
</g>
<defs>
<clipPath id="clip0_552_2135">
<rect width="20" height="20" fill="white" transform="translate(8 7)"/>
</clipPath>
</defs>
</svg>
